<!--?xml version="1.0" encoding="utf-8"?-->
<!-- Generator: Adobe Illustrator 18.0.0, SVG Export Plug-In . SVG Version: 6.00 Build 0)  -->

<svg version="1.1" id="_x31_0" xmlns="http://www.w3.org/2000/svg" xmlns:xlink="http://www.w3.org/1999/xlink" x="0px" y="0px" viewBox="0 0 512 512" style="width: 32px; height: 32px; opacity: 1;" xml:space="preserve">
<style type="text/css">
	.st0{fill:#374149;}
</style>
<g>
	<path class="st0" d="M158.367,0H41.299C20.699,0,3.842,16.857,3.842,37.457v437.086c0,20.6,16.857,37.457,37.457,37.457h117.068
		c20.6,0,37.457-16.857,37.457-37.457V37.457C195.824,16.857,178.967,0,158.367,0z" style="fill: rgb(75, 75, 75);"></path>
	<path class="st0" d="M470.705,0H353.637c-20.6,0-37.456,16.857-37.456,37.457v437.086c0,20.6,16.856,37.457,37.456,37.457h117.068
		c20.601,0,37.453-16.857,37.453-37.457V37.457C508.158,16.857,491.306,0,470.705,0z" style="fill: rgb(75, 75, 75);"></path>
</g>
</svg>
